<svg width="1200" height="700" viewBox="0 0 1200 700" xmlns="http://www.w3.org/2000/svg" font-family="Segoe UI, Arial, sans-serif">
  <defs>
    <linearGradient id="arch-bg" x1="0%" y1="0%" x2="100%" y2="100%">
      <stop offset="0%" stop-color="#0a192f" />
      <stop offset="100%" stop-color="#1a365d" />
    </linearGradient>
    <filter id="glow-arch" x="-40%" y="-40%" width="180%" height="180%">
      <feGaussianBlur stdDeviation="4" result="coloredBlur"/>
      <feMerge>
        <feMergeNode in="coloredBlur"/>
        <feMergeNode in="SourceGraphic"/>
      </feMerge>
    </filter>
    <symbol id="icon-attacker" viewBox="0 0 24 24">
      <circle cx="12" cy="6" r="4" fill="#f56565"/>
      <path d="M12 10c-3.33 0-10 1.67-10 5v3h20v-3c0-3.33-6.67-5-10-5z" fill="#f56565"/>
    </symbol>
    <symbol id="icon-iot" viewBox="0 0 24 24">
        <rect x="4" y="8" width="16" height="10" rx="2" fill="#4a5568" stroke="#a0aec0" stroke-width="1.5"/>
        <path d="M8 8V6a4 4 0 0 1 4-4h0a4 4 0 0 1 4 4v2" fill="none" stroke="#a0aec0" stroke-width="1.5"/>
        <circle cx="12" cy="13" r="2" fill="#63b3ed"/>
    </symbol>
    <symbol id="icon-server" viewBox="0 0 24 24">
        <rect x="4" y="4" width="16" height="16" rx="2" fill="#4a5568" stroke="#a0aec0" stroke-width="1.5"/>
        <circle cx="12" cy="8" r="1" fill="#68d391"/>
        <line x1="8" y1="12" x2="16" y2="12" stroke="#a0aec0" stroke-width="1.5"/>
        <line x1="8" y1="16" x2="16" y2="16" stroke="#a0aec0" stroke-width="1.5"/>
    </symbol>
    <symbol id="icon-firewall" viewBox="0 0 24 24">
        <path d="M12 2L4 6v12h16V6l-8-4z" fill="#ed8936"/>
        <path d="M4 10h16M4 14h16M10 10v8M14 10v8" stroke="white" stroke-width="1.5"/>
    </symbol>
  </defs>

  <rect width="1200" height="700" fill="url(#arch-bg)" />
  <text x="600" y="50" text-anchor="middle" font-size="32" font-weight="bold" fill="#64ffda" filter="url(#glow-arch)">Architectural Improvement: Network Segmentation</text>

  <!-- Vertical Separator -->
  <line x1="600" y1="80" x2="600" y2="650" stroke="#4a5568" stroke-width="2" stroke-dasharray="5,5"/>

  <!-- BEFORE -->
  <g id="before">
    <text x="300" y="100" text-anchor="middle" font-size="24" font-weight="bold" fill="#f56565">BEFORE: Flat Network</text>
    <rect x="50" y="130" width="500" height="450" rx="10" fill="#4a5568" fill-opacity="0.2" stroke="#f56565" stroke-width="2"/>
    <text x="300" y="160" text-anchor="middle" font-size="18" fill="#cbd5e0">Corporate LAN (192.168.1.0/24)</text>

    <!-- Icons -->
    <use href="#icon-attacker" x="275" y="200" width="50" height="50"/>
    <text x="300" y="265" text-anchor="middle" fill="#cbd5e0">External Attacker</text>

    <use href="#icon-iot" x="100" y="350" width="50" height="50"/>
    <text x="125" y="415" text-anchor="middle" fill="#cbd5e0">Compromised IoT Device</text>

    <use href="#icon-server" x="450" y="350" width="50" height="50"/>
    <text x="475" y="415" text-anchor="middle" fill="#cbd5e0">Critical Patient Data Server</text>

    <!-- Attack Path -->
    <path d="M300,270 Q300,320 150,370" stroke="#f56565" stroke-width="3" stroke-dasharray="8,4" fill="none"/>
    <polygon points="145,365 150,375 155,365" fill="#f56565"/>
    <path d="M150,375 H 450" stroke="#f56565" stroke-width="3" stroke-dasharray="8,4" fill="none"/>
    <polygon points="445,370 455,375 445,380" fill="#f56565"/>
    <text x="300" y="360" text-anchor="middle" font-size="16" fill="#f56565" font-weight="bold">UNRESTRICTED LATERAL MOVEMENT</text>
  </g>

  <!-- AFTER -->
  <g id="after">
    <text x="900" y="100" text-anchor="middle" font-size="24" font-weight="bold" fill="#68d391">AFTER: Segmented Network</text>

    <!-- IoT VLAN -->
    <rect x="650" y="130" width="225" height="450" rx="10" fill="#4a5568" fill-opacity="0.2" stroke="#63b3ed" stroke-width="2"/>
    <text x="762.5" y="160" text-anchor="middle" font-size="18" fill="#cbd5e0">IoT VLAN (10.10.20.0/24)</text>
    <use href="#icon-iot" x="737.5" y="350" width="50" height="50"/>
    <text x="762.5" y="415" text-anchor="middle" fill="#cbd5e0">Compromised IoT Device</text>

    <!-- Clinical VLAN -->
    <rect x="925" y="130" width="225" height="450" rx="10" fill="#4a5568" fill-opacity="0.2" stroke="#68d391" stroke-width="2"/>
    <text x="1037.5" y="160" text-anchor="middle" font-size="18" fill="#cbd5e0">Clinical VLAN (10.10.10.0/24)</text>
    <use href="#icon-server" x="1012.5" y="350" width="50" height="50"/>
    <text x="1037.5" y="415" text-anchor="middle" fill="#cbd5e0">Critical Patient Data Server</text>

    <!-- Firewall -->
    <use href="#icon-firewall" x="875" y="350" width="50" height="50" filter="url(#glow-arch)"/>
    <text x="900" y="415" text-anchor="middle" fill="#ed8936" font-weight="bold">Firewall</text>

    <!-- Attack Path Blocked -->
    <path d="M787.5,375 H 875" stroke="#f56565" stroke-width="3" stroke-dasharray="8,4" fill="none"/>
    <polygon points="870,370 880,375 870,380" fill="#f56565"/>
    <text x="885" y="360" text-anchor="middle" font-size="30" fill="#f56565" font-weight="bold">X</text>
    <text x="900" y="480" text-anchor="middle" font-size="16" fill="#68d391" font-weight="bold">LATERAL MOVEMENT BLOCKED</text>
  </g>

</svg>
